<svg version="1.1" id="Layer_1" xmlns="http://www.w3.org/2000/svg" xmlns:xlink="http://www.w3.org/1999/xlink" x="0px" y="0px"
     width="100%" viewBox="150 150 724 724" xml:space="preserve">
<style>
    .logo-bg-white { fill: #FFFFFF; }
    .logo-green { fill: #8BC34A; }
</style>

<path class="logo-bg-white" d="M417.505310,829.601624
    C370.841248,816.678955 329.319458,794.702820 292.097626,764.507080
    C250.930862,731.111206 218.937378,690.419495 196.228378,642.550049
    C180.138733,608.633850 169.592545,573.033691 164.554184,535.756653
    C160.580032,506.353241 160.284302,476.930298 163.919434,447.589020
    C171.139786,389.309418 191.659882,335.936401 225.970459,288.235443
    C274.346344,220.979904 338.762299,176.335175 418.629883,154.324005
    C454.332611,144.484482 490.859375,140.241882 527.869507,141.955978
    C593.857178,145.012177 655.007629,163.709366 709.884521,200.940063
    C758.642517,234.019424 796.635254,276.896362 823.934204,329.208344
    C841.024841,361.958435 852.861816,396.471954 858.651550,432.937408
    C863.365112,462.624725 864.468872,492.429810 861.521362,522.483459
    C854.604004,593.016296 829.684570,656.327026 785.539062,711.632690
    C731.433594,779.416321 661.421387,821.362854 576.052612,837.451477
    C547.082825,842.911072 517.910767,844.486938 488.544342,842.236267
    C464.592285,840.400574 440.958008,836.630676 417.505310,829.601624 Z" />

<path class="logo-green" d="
M417.505310,829.601624
    C370.841248,816.678955 329.319458,794.702820 292.097626,764.507080
    C250.930862,731.111206 218.937378,690.419495 196.228378,642.550049
    C180.138733,608.633850 169.592545,573.033691 164.554184,535.756653
    C160.580032,506.353241 160.284302,476.930298 163.919434,447.589020
    C171.139786,389.309418 191.659882,335.936401 225.970459,288.235443
    C274.346344,220.979904 338.762299,176.335175 418.629883,154.324005
    C454.332611,144.484482 490.859375,140.241882 527.869507,141.955978
    C593.857178,145.012177 655.007629,163.709366 709.884521,200.940063
    C758.642517,234.019424 796.635254,276.896362 823.934204,329.208344
    C841.024841,361.958435 852.861816,396.471954 858.651550,432.937408
    C863.365112,462.624725 864.468872,492.429810 861.521362,522.483459
    C854.604004,593.016296 829.684570,656.327026 785.539062,711.632690
    C731.433594,779.416321 661.421387,821.362854 576.052612,837.451477
    C547.082825,842.911072 517.910767,844.486938 488.544342,842.236267
    C464.592285,840.400574 440.958008,836.630676 417.505310,829.601624
M520.423218,165.371567
    C510.936523,165.523880 501.464874,165.474335 491.966064,166.067627
    C461.691620,167.958588 432.178284,173.609390 403.595154,183.620605
    C335.840790,207.351562 281.346252,248.744476 240.986633,308.136505
    C203.037445,363.981354 184.237686,426.027985 184.525131,493.512604
    C184.663300,525.946106 190.031708,557.768188 200.238159,588.677795
    C228.240402,673.480835 280.609253,738.335266 359.350159,780.880188
    C414.904358,810.896973 474.591064,823.313904 537.695435,818.809204
    C565.743591,816.807068 593.106567,811.387573 619.585999,801.969849
    C693.169250,775.799011 750.299561,729.093262 790.997925,662.613525
    C820.121094,615.041504 836.627197,563.190491 839.557434,507.377533
    C841.871643,463.297272 835.553528,420.315460 820.193359,378.871368
    C801.379761,328.109528 772.014648,284.329102 731.629333,248.183350
    C671.814941,194.648315 601.258911,168.137787 520.423218,165.371567
z"/>

<path class="logo-green" d="
M494.783630,509.985413
    C503.031311,481.799377 515.593750,456.300934 533.790466,433.617249
    C552.944336,409.740356 576.562317,391.281494 602.835083,376.010376
    C625.685120,362.728668 649.930969,352.577179 675.237610,345.078186
    C691.357239,340.301544 707.761047,336.632751 724.618652,335.472473
    C725.449890,335.415253 726.271667,335.216003 727.078796,335.955170
    C727.385437,338.286560 725.149597,338.279572 723.908630,338.934479
    C706.655823,348.039459 689.949219,357.999268 673.888123,369.116699
    C621.526428,405.361115 580.508972,451.663666 550.246948,507.597778
    C526.559753,551.379456 509.837006,597.720093 498.952484,646.262207
    C493.421112,670.930786 488.355988,695.677002 484.153656,720.604370
    C483.815948,722.607544 483.938629,724.985962 481.589081,726.381409
    C478.542511,724.894165 478.676758,721.715210 477.893768,719.197937
    C467.258759,685.007568 456.455017,650.878235 441.555054,618.228821
    C425.644135,583.364197 406.830902,550.306763 380.889893,521.744080
    C379.575195,520.296570 378.416626,518.608643 375.857056,518.190735
    C399.763794,560.196411 422.385223,602.797607 438.823029,648.204346
    C436.965302,650.146484 435.386383,649.062500 433.911133,648.562622
    C362.891052,624.503723 314.747772,577.826233 293.479248,505.219421
    C284.279572,473.813446 281.554657,441.529419 283.578186,408.831146
    C283.875732,404.022919 286.373596,404.368683 289.517639,404.871613
    C309.151886,408.012207 328.242493,413.112732 346.577576,420.876007
    C371.021149,431.225708 393.511017,444.686646 412.680298,463.225555
    C437.632355,487.357117 453.274719,516.966125 463.120148,549.924683
    C471.375153,577.559326 474.362152,605.946228 475.375183,634.628662
    C475.510162,638.451538 475.987946,642.263245 476.351013,646.075928
    C476.392426,646.510925 476.719818,646.918640 477.397522,648.380981
    C479.302338,640.710449 479.130920,633.791504 479.643433,627.003052
    C482.398254,590.512573 483.996002,553.891663 492.669769,518.112183
    C493.297119,515.524414 494.025024,512.960999 494.783630,509.985413
z"/>
<path class="logo-green" d="
M635.205933,476.125977
    C657.112122,463.019379 680.248169,453.902954 704.733826,448.289429
    C715.110291,445.910492 725.686035,444.524841 736.335938,443.953674
    C739.212036,443.799408 742.256409,443.604034 741.934143,448.111267
    C740.003357,475.110840 735.112732,501.481293 726.132935,527.097595
    C702.875366,593.443176 655.903442,632.433411 587.945862,647.247314
    C579.069336,649.182251 570.071594,650.962036 559.316467,649.956482
    C581.087708,612.538879 606.179260,578.766785 635.113647,546.819641
    C631.110901,545.609375 629.655762,547.502502 628.050659,548.697449
    C601.779114,568.256042 581.068115,592.874634 563.402893,620.198669
    C556.715271,630.543030 550.471130,641.173584 543.958496,651.632263
    C542.943420,653.262451 542.382019,655.359436 539.064514,656.546387
    C536.949768,619.508484 543.933289,584.942322 561.220764,552.653687
    C578.527100,520.329834 603.467529,495.133392 635.205933,476.125977
z"/>

<path class="logo-green" d="
M442.442841,340.186951 
    C437.309357,307.110046 456.044983,276.768066 486.580688,268.647675 
    C508.886108,262.715973 534.064880,271.826782 548.616211,291.911804 
    C568.513000,319.375092 562.530762,358.998199 535.481567,378.908936 
    C501.957153,403.585968 454.660767,386.588318 443.806641,345.955811 
    C443.334656,344.188965 442.957794,342.396729 442.442841,340.186951 
z"/>
</svg>
