<svg xmlns="http://www.w3.org/2000/svg" width="256" height="256" viewBox="0 0 256 256" fill="none">
  <path d="M128 42.6667C85.3333 42.6667 53.3333 74.6667 53.3333 117.333C53.3333 160 85.3333 192 128 192C170.667 192 202.667 160 202.667 117.333C202.667 74.6667 170.667 42.6667 128 42.6667Z" fill="#65A30D" stroke="#4D7C0F" stroke-width="10"/>
  <path d="M128 42.6667C128 42.6667 106.667 64 106.667 96C106.667 128 128 149.333 128 149.333C128 149.333 149.333 128 149.333 96C149.333 64 128 42.6667 128 42.6667Z" fill="#22C55E"/>
  <line x1="128" y1="149.333" x2="128" y2="192" stroke="#4D7C0F" stroke-width="10" stroke-linecap="round"/>
  <path d="M106.667 117.333C106.667 117.333 85.3333 128 64 138.667M149.333 117.333C149.333 117.333 170.667 128 192 138.667" stroke="#4D7C0F" stroke-width="8" stroke-linecap="round"/>
</svg>