<svg xmlns="http://www.w3.org/2000/svg" viewBox="0 0 743.89 743.89" width="512" height="512" role="img" aria-label="Lifeetics logo">
<title>Lifeetics</title>
<style>.logo-green{fill:#8BC34A;}</style>
<path class="logo-green" d="M 277.1860 709.1382 C 230.5219 696.2155 189.0002 674.2394 151.7783 644.0436 C 110.6116 610.6477 78.6181 569.9560 55.9091 522.0866 C 39.8194 488.1704 29.2732 452.5702 24.2349 415.2932 C 20.2607 385.8898 19.9650 356.4668 23.6001 327.1256 C 30.8205 268.8460 51.3406 215.4729 85.6512 167.7720 C 134.0270 100.5164 198.4430 55.8717 278.3106 33.8605 C 314.0133 24.0210 350.5401 19.7784 387.5502 21.4925 C 453.5379 24.5487 514.6883 43.2459 569.5652 80.4766 C 618.3232 113.5560 656.3160 156.4329 683.6149 208.7449 C 700.7055 241.4950 712.5425 276.0085 718.3323 312.4739 C 723.0458 342.1613 724.1496 371.9663 721.2021 402.0200 C 714.2847 472.5528 689.3653 535.8636 645.2198 591.1692 C 591.1143 658.9529 521.1021 700.8994 435.7333 716.9880 C 406.7635 722.4476 377.5915 724.0235 348.2250 721.7728 C 324.2730 719.9371 300.6387 716.1672 277.1860 709.1382 M 380.1039 44.9081 C 370.6172 45.0604 361.1456 45.0109 351.6468 45.6042 C 321.3723 47.4951 291.8590 53.1459 263.2759 63.1571 C 195.5215 86.8881 141.0270 128.2810 100.6673 187.6730 C 62.7181 243.5179 43.9184 305.5645 44.2058 373.0491 C 44.3440 405.4826 49.7124 437.3047 59.9189 468.2143 C 87.9211 553.0174 140.2900 617.8718 219.0309 660.4167 C 274.5851 690.4335 334.2718 702.8504 397.3761 698.3457 C 425.4243 696.3436 452.7873 690.9241 479.2667 681.5064 C 552.8500 655.3355 609.9803 608.6298 650.6786 542.1501 C 679.8018 494.5780 696.3079 442.7270 699.2381 386.9141 C 701.5523 342.8338 695.2342 299.8520 679.8741 258.4079 C 661.0605 207.6461 631.6953 163.8656 591.3100 127.7199 C 531.4956 74.1849 460.9396 47.6743 380.1039 44.9081 z"/>
<path class="logo-green" d="M 354.4643 389.5219 C 362.7120 361.3359 375.2745 335.8375 393.4712 313.1538 C 412.6250 289.2769 436.2430 270.8180 462.5158 255.5469 C 485.3658 242.2652 509.6117 232.1137 534.9183 224.6147 C 551.0379 219.8381 567.4417 216.1693 584.2994 215.0090 C 585.1306 214.9518 585.9524 214.7525 586.7595 215.4917 C 587.0661 217.8231 584.8303 217.8161 583.5893 218.4710 C 566.3365 227.5760 549.6299 237.5358 533.5688 248.6532 C 481.2071 284.8977 440.1897 331.2002 409.9276 387.1343 C 386.2405 430.9160 369.5177 477.2566 358.6332 525.7987 C 353.1018 550.4673 348.0367 575.2135 343.8344 600.1409 C 343.4966 602.1441 343.6193 604.5225 341.2698 605.9179 C 338.2232 604.4307 338.3575 601.2517 337.5745 598.7345 C 326.9395 564.5441 316.1357 530.4148 301.2358 497.7654 C 285.3248 462.9007 266.5116 429.8433 240.5706 401.2806 C 239.2559 399.8331 238.0973 398.1452 235.5378 397.7273 C 259.4445 439.7329 282.0659 482.3341 298.5037 527.7409 C 296.6460 529.6830 295.0671 528.5990 293.5918 528.0992 C 222.5718 504.0403 174.4285 457.3628 153.1599 384.7560 C 143.9603 353.3500 141.2354 321.0660 143.2589 288.3677 C 143.5564 283.5595 146.0543 283.9052 149.1983 284.4081 C 168.8326 287.5487 187.9232 292.6493 206.2583 300.4125 C 230.7018 310.7622 253.1917 324.2232 272.3610 342.7621 C 297.3131 366.8937 312.9554 396.5027 322.8008 429.4612 C 331.0559 457.0959 334.0429 485.4828 335.0559 514.1652 C 335.1909 517.9881 335.6686 521.7998 336.0317 525.6125 C 336.0731 526.0475 336.4005 526.4552 337.0782 527.9175 C 338.9830 520.2470 338.8116 513.3280 339.3241 506.5396 C 342.0790 470.0491 343.6767 433.4282 352.3505 397.6487 C 352.9778 395.0609 353.7057 392.4975 354.4643 389.5219 z"/>
<path class="logo-green" d="M 494.8866 355.6625 C 516.7928 342.5559 539.9289 333.4395 564.4145 327.8260 C 574.7910 325.4470 585.3667 324.0614 596.0166 323.4902 C 598.8927 323.3359 601.9371 323.1406 601.6148 327.6478 C 599.6841 354.6474 594.7934 381.0178 585.8136 406.6341 C 562.5561 472.9797 515.5841 511.9699 447.6266 526.7838 C 438.7500 528.7188 429.7523 530.4986 418.9972 529.4930 C 440.7684 492.0754 465.8600 458.3033 494.7943 426.3562 C 490.7916 425.1459 489.3365 427.0390 487.7314 428.2340 C 461.4598 447.7926 440.7488 472.4112 423.0836 499.7352 C 416.3960 510.0796 410.1518 520.7101 403.6392 531.1688 C 402.6241 532.7990 402.0627 534.8960 398.7452 536.0829 C 396.6305 499.0450 403.6140 464.4789 420.9015 432.1902 C 438.2078 399.8664 463.1482 374.6699 494.8866 355.6625 z"/>
<path class="logo-green" d="M 302.1235 219.7235 C 296.9901 186.6466 315.7257 156.3046 346.2614 148.1842 C 368.5668 142.2525 393.7456 151.3633 408.2969 171.4483 C 428.1937 198.9116 422.2115 238.5347 395.1623 258.4455 C 361.6379 283.1225 314.3415 266.1249 303.4873 225.4923 C 303.0154 223.7255 302.6385 221.9333 302.1235 219.7235 z"/>
</svg>
